<svg width="64" height="64" viewBox="0 0 64 64" fill="none" xmlns="http://www.w3.org/2000/svg">
<rect width="64" height="64" rx="32" fill="#F8F8F8"/>
<path d="M24.2496 24C23.007 24 21.9996 25.0074 21.9996 26.25V35.25C21.9996 36.4926 23.007 37.5 24.2496 37.5H39.7504C40.993 37.5 42.0004 36.4926 42.0004 35.25V26.25C42.0004 25.0074 40.993 24 39.7504 24H24.2496ZM23.4996 26.25C23.4996 25.8358 23.8354 25.5 24.2496 25.5H39.7504C40.1646 25.5 40.5004 25.8358 40.5004 26.25V35.25C40.5004 35.6642 40.1646 36 39.7504 36H24.2496C23.8354 36 23.4996 35.6642 23.4996 35.25V26.25ZM20.75 38.5C20.3358 38.5 20 38.8358 20 39.25C20 39.6642 20.3358 40 20.75 40H43.25C43.6642 40 44 39.6642 44 39.25C44 38.8358 43.6642 38.5 43.25 38.5H20.75Z" fill="#212121"/>
</svg>
